<mxfile host="app.diagrams.net" modified="2021-01-01T09:45:20.090Z" agent="5.0 (Windows NT 6.1; Win64; x64) AppleWebKit/537.36 (KHTML, like Gecko) Chrome/87.0.4280.88 Safari/537.36" etag="jCUEVgZzz2-TIBcgCMpb" version="14.1.7" type="github">
  <diagram id="C5RBs43oDa-KdzZeNtuy" name="Page-1">
    <mxGraphModel dx="868" dy="482" grid="1" gridSize="10" guides="1" tooltips="1" connect="1" arrows="1" fold="1" page="1" pageScale="1" pageWidth="827" pageHeight="1169" math="0" shadow="0">
      <root>
        <mxCell id="WIyWlLk6GJQsqaUBKTNV-0" />
        <mxCell id="WIyWlLk6GJQsqaUBKTNV-1" parent="WIyWlLk6GJQsqaUBKTNV-0" />
        <mxCell id="VA_zBbZ4TPPsf_U8p4MJ-0" value="Use Case" style="shape=table;html=1;whiteSpace=wrap;startSize=40;container=1;collapsible=0;childLayout=tableLayout;fixedRows=1;rowLines=0;fontStyle=1;align=center;fillColor=none;strokeColor=#006658;fontColor=#5C5C5C;" vertex="1" parent="WIyWlLk6GJQsqaUBKTNV-1">
          <mxGeometry x="40" y="40" width="200" height="160" as="geometry" />
        </mxCell>
        <mxCell id="VA_zBbZ4TPPsf_U8p4MJ-1" value="" style="shape=partialRectangle;html=1;whiteSpace=wrap;collapsible=0;dropTarget=0;pointerEvents=0;top=0;left=0;bottom=1;right=0;points=[[0,0.5],[1,0.5]];portConstraint=eastwest;fillColor=none;strokeColor=#006658;fontColor=#5C5C5C;" vertex="1" parent="VA_zBbZ4TPPsf_U8p4MJ-0">
          <mxGeometry y="40" width="200" height="40" as="geometry" />
        </mxCell>
        <mxCell id="VA_zBbZ4TPPsf_U8p4MJ-2" value="PK" style="shape=partialRectangle;html=1;whiteSpace=wrap;connectable=0;top=0;left=0;bottom=0;right=0;overflow=hidden;fillColor=none;strokeColor=#006658;fontColor=#5C5C5C;" vertex="1" parent="VA_zBbZ4TPPsf_U8p4MJ-1">
          <mxGeometry width="40" height="40" as="geometry" />
        </mxCell>
        <mxCell id="VA_zBbZ4TPPsf_U8p4MJ-3" value="ID_Use" style="shape=partialRectangle;html=1;whiteSpace=wrap;connectable=0;top=0;left=0;bottom=0;right=0;align=left;spacingLeft=6;overflow=hidden;fillColor=none;strokeColor=#006658;fontColor=#5C5C5C;" vertex="1" parent="VA_zBbZ4TPPsf_U8p4MJ-1">
          <mxGeometry x="40" width="160" height="40" as="geometry" />
        </mxCell>
        <mxCell id="VA_zBbZ4TPPsf_U8p4MJ-4" value="" style="shape=partialRectangle;html=1;whiteSpace=wrap;collapsible=0;dropTarget=0;pointerEvents=0;top=0;left=0;bottom=0;right=0;points=[[0,0.5],[1,0.5]];portConstraint=eastwest;fillColor=none;strokeColor=#006658;fontColor=#5C5C5C;" vertex="1" parent="VA_zBbZ4TPPsf_U8p4MJ-0">
          <mxGeometry y="80" width="200" height="40" as="geometry" />
        </mxCell>
        <mxCell id="VA_zBbZ4TPPsf_U8p4MJ-5" value="" style="shape=partialRectangle;html=1;whiteSpace=wrap;connectable=0;top=0;left=0;bottom=0;right=0;overflow=hidden;fillColor=none;strokeColor=#006658;fontColor=#5C5C5C;" vertex="1" parent="VA_zBbZ4TPPsf_U8p4MJ-4">
          <mxGeometry width="40" height="40" as="geometry" />
        </mxCell>
        <mxCell id="VA_zBbZ4TPPsf_U8p4MJ-6" value="Actor" style="shape=partialRectangle;html=1;whiteSpace=wrap;connectable=0;top=0;left=0;bottom=0;right=0;align=left;spacingLeft=6;overflow=hidden;fillColor=none;strokeColor=#006658;fontColor=#5C5C5C;" vertex="1" parent="VA_zBbZ4TPPsf_U8p4MJ-4">
          <mxGeometry x="40" width="160" height="40" as="geometry" />
        </mxCell>
        <mxCell id="VA_zBbZ4TPPsf_U8p4MJ-7" value="" style="shape=partialRectangle;html=1;whiteSpace=wrap;collapsible=0;dropTarget=0;pointerEvents=0;top=0;left=0;bottom=0;right=0;points=[[0,0.5],[1,0.5]];portConstraint=eastwest;fillColor=none;strokeColor=#006658;fontColor=#5C5C5C;" vertex="1" parent="VA_zBbZ4TPPsf_U8p4MJ-0">
          <mxGeometry y="120" width="200" height="40" as="geometry" />
        </mxCell>
        <mxCell id="VA_zBbZ4TPPsf_U8p4MJ-8" value="" style="shape=partialRectangle;html=1;whiteSpace=wrap;connectable=0;top=0;left=0;bottom=0;right=0;overflow=hidden;fillColor=none;strokeColor=#006658;fontColor=#5C5C5C;" vertex="1" parent="VA_zBbZ4TPPsf_U8p4MJ-7">
          <mxGeometry width="40" height="40" as="geometry" />
        </mxCell>
        <mxCell id="VA_zBbZ4TPPsf_U8p4MJ-9" value="Case" style="shape=partialRectangle;html=1;whiteSpace=wrap;connectable=0;top=0;left=0;bottom=0;right=0;align=left;spacingLeft=6;overflow=hidden;fillColor=none;strokeColor=#006658;fontColor=#5C5C5C;" vertex="1" parent="VA_zBbZ4TPPsf_U8p4MJ-7">
          <mxGeometry x="40" width="160" height="40" as="geometry" />
        </mxCell>
        <mxCell id="VA_zBbZ4TPPsf_U8p4MJ-10" value="Data Flow" style="shape=table;html=1;whiteSpace=wrap;startSize=40;container=1;collapsible=0;childLayout=tableLayout;fixedRows=1;rowLines=0;fontStyle=1;align=center;fillColor=none;strokeColor=#006658;fontColor=#5C5C5C;" vertex="1" parent="WIyWlLk6GJQsqaUBKTNV-1">
          <mxGeometry x="300" y="295" width="200" height="160" as="geometry" />
        </mxCell>
        <mxCell id="VA_zBbZ4TPPsf_U8p4MJ-11" value="" style="shape=partialRectangle;html=1;whiteSpace=wrap;collapsible=0;dropTarget=0;pointerEvents=0;top=0;left=0;bottom=1;right=0;points=[[0,0.5],[1,0.5]];portConstraint=eastwest;fillColor=none;strokeColor=#006658;fontColor=#5C5C5C;" vertex="1" parent="VA_zBbZ4TPPsf_U8p4MJ-10">
          <mxGeometry y="40" width="200" height="40" as="geometry" />
        </mxCell>
        <mxCell id="VA_zBbZ4TPPsf_U8p4MJ-12" value="FK" style="shape=partialRectangle;html=1;whiteSpace=wrap;connectable=0;top=0;left=0;bottom=0;right=0;overflow=hidden;fillColor=none;strokeColor=#006658;fontColor=#5C5C5C;" vertex="1" parent="VA_zBbZ4TPPsf_U8p4MJ-11">
          <mxGeometry width="44" height="40" as="geometry" />
        </mxCell>
        <mxCell id="VA_zBbZ4TPPsf_U8p4MJ-13" value="ID_DataFlow" style="shape=partialRectangle;html=1;whiteSpace=wrap;connectable=0;top=0;left=0;bottom=0;right=0;align=left;spacingLeft=6;overflow=hidden;fillColor=none;strokeColor=#006658;fontColor=#5C5C5C;" vertex="1" parent="VA_zBbZ4TPPsf_U8p4MJ-11">
          <mxGeometry x="44" width="156" height="40" as="geometry" />
        </mxCell>
        <mxCell id="VA_zBbZ4TPPsf_U8p4MJ-14" value="" style="shape=partialRectangle;html=1;whiteSpace=wrap;collapsible=0;dropTarget=0;pointerEvents=0;top=0;left=0;bottom=0;right=0;points=[[0,0.5],[1,0.5]];portConstraint=eastwest;fillColor=none;strokeColor=#006658;fontColor=#5C5C5C;" vertex="1" parent="VA_zBbZ4TPPsf_U8p4MJ-10">
          <mxGeometry y="80" width="200" height="40" as="geometry" />
        </mxCell>
        <mxCell id="VA_zBbZ4TPPsf_U8p4MJ-15" value="" style="shape=partialRectangle;html=1;whiteSpace=wrap;connectable=0;top=0;left=0;bottom=0;right=0;overflow=hidden;fillColor=none;strokeColor=#006658;fontColor=#5C5C5C;" vertex="1" parent="VA_zBbZ4TPPsf_U8p4MJ-14">
          <mxGeometry width="44" height="40" as="geometry" />
        </mxCell>
        <mxCell id="VA_zBbZ4TPPsf_U8p4MJ-16" value="User Management" style="shape=partialRectangle;html=1;whiteSpace=wrap;connectable=0;top=0;left=0;bottom=0;right=0;align=left;spacingLeft=6;overflow=hidden;fillColor=none;strokeColor=#006658;fontColor=#5C5C5C;" vertex="1" parent="VA_zBbZ4TPPsf_U8p4MJ-14">
          <mxGeometry x="44" width="156" height="40" as="geometry" />
        </mxCell>
        <mxCell id="VA_zBbZ4TPPsf_U8p4MJ-17" value="" style="shape=partialRectangle;html=1;whiteSpace=wrap;collapsible=0;dropTarget=0;pointerEvents=0;top=0;left=0;bottom=0;right=0;points=[[0,0.5],[1,0.5]];portConstraint=eastwest;fillColor=none;strokeColor=#006658;fontColor=#5C5C5C;" vertex="1" parent="VA_zBbZ4TPPsf_U8p4MJ-10">
          <mxGeometry y="120" width="200" height="30" as="geometry" />
        </mxCell>
        <mxCell id="VA_zBbZ4TPPsf_U8p4MJ-18" value="" style="shape=partialRectangle;html=1;whiteSpace=wrap;connectable=0;top=0;left=0;bottom=0;right=0;overflow=hidden;fillColor=none;strokeColor=#006658;fontColor=#5C5C5C;" vertex="1" parent="VA_zBbZ4TPPsf_U8p4MJ-17">
          <mxGeometry width="44" height="30" as="geometry" />
        </mxCell>
        <mxCell id="VA_zBbZ4TPPsf_U8p4MJ-19" value="API" style="shape=partialRectangle;html=1;whiteSpace=wrap;connectable=0;top=0;left=0;bottom=0;right=0;align=left;spacingLeft=6;overflow=hidden;fillColor=none;strokeColor=#006658;fontColor=#5C5C5C;" vertex="1" parent="VA_zBbZ4TPPsf_U8p4MJ-17">
          <mxGeometry x="44" width="156" height="30" as="geometry" />
        </mxCell>
        <mxCell id="VA_zBbZ4TPPsf_U8p4MJ-44" value="User Flow" style="shape=table;html=1;whiteSpace=wrap;startSize=40;container=1;collapsible=0;childLayout=tableLayout;fixedRows=1;rowLines=0;fontStyle=1;align=center;fillColor=none;strokeColor=#006658;fontColor=#5C5C5C;" vertex="1" parent="WIyWlLk6GJQsqaUBKTNV-1">
          <mxGeometry x="570" y="50" width="180" height="200" as="geometry" />
        </mxCell>
        <mxCell id="VA_zBbZ4TPPsf_U8p4MJ-45" value="" style="shape=partialRectangle;html=1;whiteSpace=wrap;collapsible=0;dropTarget=0;pointerEvents=0;top=0;left=0;bottom=1;right=0;points=[[0,0.5],[1,0.5]];portConstraint=eastwest;fillColor=none;strokeColor=#006658;fontColor=#5C5C5C;" vertex="1" parent="VA_zBbZ4TPPsf_U8p4MJ-44">
          <mxGeometry y="40" width="180" height="40" as="geometry" />
        </mxCell>
        <mxCell id="VA_zBbZ4TPPsf_U8p4MJ-46" value="PK" style="shape=partialRectangle;html=1;whiteSpace=wrap;connectable=0;top=0;left=0;bottom=0;right=0;overflow=hidden;fillColor=none;strokeColor=#006658;fontColor=#5C5C5C;" vertex="1" parent="VA_zBbZ4TPPsf_U8p4MJ-45">
          <mxGeometry width="40" height="40" as="geometry" />
        </mxCell>
        <mxCell id="VA_zBbZ4TPPsf_U8p4MJ-47" value="ID_User" style="shape=partialRectangle;html=1;whiteSpace=wrap;connectable=0;top=0;left=0;bottom=0;right=0;align=left;spacingLeft=6;overflow=hidden;fillColor=none;strokeColor=#006658;fontColor=#5C5C5C;" vertex="1" parent="VA_zBbZ4TPPsf_U8p4MJ-45">
          <mxGeometry x="40" width="140" height="40" as="geometry" />
        </mxCell>
        <mxCell id="VA_zBbZ4TPPsf_U8p4MJ-48" value="" style="shape=partialRectangle;html=1;whiteSpace=wrap;collapsible=0;dropTarget=0;pointerEvents=0;top=0;left=0;bottom=0;right=0;points=[[0,0.5],[1,0.5]];portConstraint=eastwest;fillColor=none;strokeColor=#006658;fontColor=#5C5C5C;" vertex="1" parent="VA_zBbZ4TPPsf_U8p4MJ-44">
          <mxGeometry y="80" width="180" height="40" as="geometry" />
        </mxCell>
        <mxCell id="VA_zBbZ4TPPsf_U8p4MJ-49" value="" style="shape=partialRectangle;html=1;whiteSpace=wrap;connectable=0;top=0;left=0;bottom=0;right=0;overflow=hidden;fillColor=none;strokeColor=#006658;fontColor=#5C5C5C;" vertex="1" parent="VA_zBbZ4TPPsf_U8p4MJ-48">
          <mxGeometry width="40" height="40" as="geometry" />
        </mxCell>
        <mxCell id="VA_zBbZ4TPPsf_U8p4MJ-50" value="Actor" style="shape=partialRectangle;html=1;whiteSpace=wrap;connectable=0;top=0;left=0;bottom=0;right=0;align=left;spacingLeft=6;overflow=hidden;fillColor=none;strokeColor=#006658;fontColor=#5C5C5C;" vertex="1" parent="VA_zBbZ4TPPsf_U8p4MJ-48">
          <mxGeometry x="40" width="140" height="40" as="geometry" />
        </mxCell>
        <mxCell id="VA_zBbZ4TPPsf_U8p4MJ-51" value="" style="shape=partialRectangle;html=1;whiteSpace=wrap;collapsible=0;dropTarget=0;pointerEvents=0;top=0;left=0;bottom=0;right=0;points=[[0,0.5],[1,0.5]];portConstraint=eastwest;fillColor=none;strokeColor=#006658;fontColor=#5C5C5C;" vertex="1" parent="VA_zBbZ4TPPsf_U8p4MJ-44">
          <mxGeometry y="120" width="180" height="40" as="geometry" />
        </mxCell>
        <mxCell id="VA_zBbZ4TPPsf_U8p4MJ-52" value="" style="shape=partialRectangle;html=1;whiteSpace=wrap;connectable=0;top=0;left=0;bottom=0;right=0;overflow=hidden;fillColor=none;strokeColor=#006658;fontColor=#5C5C5C;" vertex="1" parent="VA_zBbZ4TPPsf_U8p4MJ-51">
          <mxGeometry width="40" height="40" as="geometry" />
        </mxCell>
        <mxCell id="VA_zBbZ4TPPsf_U8p4MJ-53" value="Case" style="shape=partialRectangle;html=1;whiteSpace=wrap;connectable=0;top=0;left=0;bottom=0;right=0;align=left;spacingLeft=6;overflow=hidden;fillColor=none;strokeColor=#006658;fontColor=#5C5C5C;" vertex="1" parent="VA_zBbZ4TPPsf_U8p4MJ-51">
          <mxGeometry x="40" width="140" height="40" as="geometry" />
        </mxCell>
        <mxCell id="VA_zBbZ4TPPsf_U8p4MJ-54" value="Tahapan" style="shape=partialRectangle;html=1;whiteSpace=wrap;connectable=0;top=0;left=0;bottom=0;right=0;align=left;spacingLeft=6;overflow=hidden;fillColor=none;strokeColor=#006658;fontColor=#5C5C5C;" vertex="1" parent="WIyWlLk6GJQsqaUBKTNV-1">
          <mxGeometry x="610" y="210" width="140" height="30" as="geometry" />
        </mxCell>
        <mxCell id="VA_zBbZ4TPPsf_U8p4MJ-58" style="edgeStyle=orthogonalEdgeStyle;curved=0;rounded=1;sketch=0;orthogonalLoop=1;jettySize=auto;html=1;strokeColor=#006658;fillColor=#21C0A5;fontColor=#5C5C5C;" edge="1" parent="WIyWlLk6GJQsqaUBKTNV-1" source="VA_zBbZ4TPPsf_U8p4MJ-1" target="VA_zBbZ4TPPsf_U8p4MJ-11">
          <mxGeometry relative="1" as="geometry" />
        </mxCell>
        <mxCell id="VA_zBbZ4TPPsf_U8p4MJ-59" style="edgeStyle=orthogonalEdgeStyle;curved=0;rounded=1;sketch=0;orthogonalLoop=1;jettySize=auto;html=1;exitX=1;exitY=0.5;exitDx=0;exitDy=0;entryX=0;entryY=0.5;entryDx=0;entryDy=0;strokeColor=#006658;fillColor=#21C0A5;fontColor=#5C5C5C;" edge="1" parent="WIyWlLk6GJQsqaUBKTNV-1" source="VA_zBbZ4TPPsf_U8p4MJ-11" target="VA_zBbZ4TPPsf_U8p4MJ-45">
          <mxGeometry relative="1" as="geometry" />
        </mxCell>
      </root>
    </mxGraphModel>
  </diagram>
</mxfile>
